<?xml version="1.0" standalone="no"?>
<!DOCTYPE svg PUBLIC "-//W3C//DTD SVG 20010904//EN"
 "http://www.w3.org/TR/2001/REC-SVG-20010904/DTD/svg10.dtd">
<svg version="1.0" xmlns="http://www.w3.org/2000/svg"
 width="89.000000pt" height="88.000000pt" viewBox="0 0 89.000000 88.000000"
 preserveAspectRatio="xMidYMid meet">

<g transform="translate(0.000000,88.000000) scale(0.100000,-0.100000)"
fill="#000000" stroke="none">
<path d="M20 847 c0 -9 54 -102 78 -134 13 -18 45 -45 70 -62 50 -32 96 -84
112 -126 6 -15 10 -28 10 -29 0 -2 -18 -4 -40 -5 -65 -2 -69 -3 -90 -26 l-21
-22 38 -23 c41 -25 49 -26 77 -15 17 7 18 5 12 -16 -17 -54 -6 -93 46 -169 32
-46 51 -83 50 -98 -3 -38 27 -90 61 -107 20 -10 33 -12 35 -5 2 5 12 10 22 10
24 0 52 46 55 91 1 25 18 61 55 115 51 76 52 81 46 131 -6 53 -3 60 23 44 8
-5 29 0 58 16 41 24 43 26 28 43 -19 21 -87 40 -115 33 -13 -4 -20 0 -20 9 0
28 63 109 109 140 25 18 59 46 74 63 30 32 90 136 83 143 -3 2 -44 -19 -91
-48 -48 -29 -113 -60 -146 -70 -72 -22 -151 -71 -169 -105 -17 -32 -26 -32
-44 3 -8 15 -31 37 -50 47 -20 11 -36 22 -36 26 0 3 -29 14 -65 24 -36 9 -103
40 -148 67 -85 52 -107 64 -107 55z m73 -49 c16 -12 16 -14 -1 -25 -17 -10
-21 -7 -36 23 -15 33 -15 34 1 25 10 -5 26 -15 36 -23z m751 0 c-9 -18 -17
-34 -18 -35 0 -1 -9 5 -20 12 -17 13 -16 15 15 34 19 12 35 21 37 21 1 0 -5
-15 -14 -32z m-689 -38 c3 -5 -1 -10 -9 -10 -8 0 -19 -8 -25 -17 -7 -14 -12
-15 -22 -6 -6 6 -9 19 -6 27 7 18 52 22 62 6z m652 -6 c11 -28 -13 -38 -41
-17 -14 11 -22 23 -19 27 12 12 54 6 60 -10z m-597 -24 c9 -6 10 -10 3 -10 -6
0 -20 -13 -29 -30 -17 -28 -19 -28 -36 -13 -18 16 -24 44 -11 56 10 10 56 8
73 -3z m555 -19 c0 -32 -32 -53 -46 -29 -5 9 -16 24 -24 32 -18 18 -4 26 40
23 24 -2 30 -6 30 -26z m-478 -2 l28 -11 -27 -10 c-17 -6 -32 -21 -39 -43
l-12 -33 -29 21 c-34 25 -35 31 -3 62 27 28 41 30 82 14z m400 -4 c32 -22 35
-51 7 -66 -13 -7 -24 -17 -24 -23 -1 -6 -9 5 -18 24 -9 19 -27 39 -40 45 -28
12 -28 22 1 28 42 8 53 7 74 -8z m-306 -47 c36 -27 41 -33 24 -36 -51 -8 -66
-14 -95 -39 -31 -26 -33 -26 -46 -8 -33 45 3 111 62 114 6 1 31 -13 55 -31z
m230 22 c10 0 39 -53 39 -72 0 -7 -7 -21 -15 -32 -13 -17 -16 -17 -59 14 -32
23 -52 31 -70 28 -14 -3 -26 -2 -26 2 0 21 87 73 108 65 8 -3 18 -5 23 -5z
m-197 -80 c35 -13 33 -32 -9 -69 -45 -39 -100 -43 -111 -9 -5 17 1 29 30 55
38 35 50 38 90 23z m162 -23 c30 -27 35 -38 29 -56 -6 -21 -12 -23 -53 -18
-35 4 -52 12 -69 34 -29 35 -29 51 0 63 38 15 56 11 93 -23z m-105 -46 c11
-25 21 -30 68 -38 l55 -8 13 -50 c26 -100 22 -133 -25 -202 -24 -35 -46 -63
-51 -63 -11 0 -31 70 -31 109 0 28 3 31 29 31 21 0 32 6 36 21 4 11 4 23 1 26
-3 4 0 13 6 21 7 8 -10 3 -40 -12 -47 -24 -52 -30 -52 -59 0 -17 9 -60 19 -94
11 -35 17 -63 15 -63 -2 0 1 -12 6 -26 7 -19 7 -31 -1 -40 -14 -17 -51 -18
-67 -2 -9 9 -12 9 -12 0 0 -17 -45 -15 -60 2 -9 12 -8 28 6 78 10 35 19 90 22
123 l3 60 -44 22 -44 21 6 -36 c6 -33 10 -37 40 -40 l33 -3 -5 -47 c-2 -26
-10 -60 -16 -76 l-11 -28 -50 70 c-28 39 -50 82 -50 94 0 13 8 56 17 95 17 67
20 73 44 73 44 0 86 20 97 45 15 33 27 31 43 -4z m-181 -62 c0 -5 -11 -9 -25
-9 -14 0 -41 -6 -60 -14 -37 -16 -55 -7 -30 14 30 25 115 31 115 9z m418 -6
c44 -19 31 -37 -15 -18 -19 8 -46 15 -59 15 -28 0 -32 17 -6 22 20 5 34 1 80
-19z m-428 -27 c0 -15 -52 -29 -76 -19 -14 5 -13 8 7 19 32 18 69 18 69 0z
m409 0 c24 -13 24 -14 4 -20 -28 -9 -70 2 -77 20 -7 18 40 18 73 0z m-314 -88
c33 -15 32 -30 -2 -26 -17 2 -29 10 -31 21 -4 20 -1 21 33 5z m183 -5 c-2 -11
-14 -19 -31 -21 -31 -4 -35 5 -9 24 24 19 44 17 40 -3z m-59 -289 c12 -10 -16
-24 -48 -24 -49 0 -76 27 -34 33 26 3 73 -2 82 -9z"/>
<path d="M415 426 c-16 -13 -28 -26 -25 -28 3 -2 18 -12 33 -21 27 -17 29 -17
59 4 l31 22 -29 24 c-35 28 -32 28 -69 -1z m63 -8 c15 -15 -2 -38 -28 -38 -26
0 -43 23 -28 38 7 7 19 12 28 12 9 0 21 -5 28 -12z"/>
<path d="M413 163 c-25 -10 -14 -41 16 -48 30 -6 71 8 71 24 0 13 -30 35 -37
27 -3 -3 -1 -6 5 -6 18 0 14 -27 -4 -34 -19 -7 -54 1 -54 13 0 4 5 12 12 19
13 13 11 14 -9 5z"/>
</g>
</svg>
